<svg width="16" height="16" viewBox="0 0 16 16" fill="none" xmlns="http://www.w3.org/2000/svg">
<path d="M11.6519 6.00737C11.6569 6.00735 11.6618 6.00734 11.6668 6.00734C13.3237 6.00734 14.6668 7.35295 14.6668 9.01284C14.6668 10.5599 13.5001 11.8339 12.0002 12M11.6519 6.00737C11.6618 5.89737 11.6668 5.78597 11.6668 5.67339C11.6668 3.64463 10.0252 2 8.00016 2C6.08232 2 4.50838 3.47511 4.34711 5.35461M11.6519 6.00737C11.5837 6.76506 11.2859 7.4564 10.8287 8.01101M4.34711 5.35461C2.65615 5.51582 1.3335 6.94261 1.3335 8.6789C1.3335 10.2945 2.47867 11.6421 4.00016 11.9515M4.34711 5.35461C4.45233 5.34458 4.55898 5.33945 4.66683 5.33945C5.41738 5.33945 6.10999 5.58796 6.66715 6.00734" stroke="white" stroke-linecap="round" stroke-linejoin="round"/>
<path d="M8.00016 8.66669L8.00016 14M8.00016 8.66669C7.53334 8.66669 6.66118 9.99622 6.3335 10.3334M8.00016 8.66669C8.46698 8.66669 9.33914 9.99622 9.66683 10.3334" stroke="white" stroke-linecap="round" stroke-linejoin="round"/>
</svg>
